<?xml version="1.0" encoding="utf-8"?>
<!-- Generator: Adobe Illustrator 18.0.0, SVG Export Plug-In . SVG Version: 6.00 Build 0)  -->
<!DOCTYPE svg PUBLIC "-//W3C//DTD SVG 1.1//EN" "http://www.w3.org/Graphics/SVG/1.1/DTD/svg11.dtd">
<svg version="1.1" id="Camada_1" xmlns="http://www.w3.org/2000/svg" xmlns:xlink="http://www.w3.org/1999/xlink" x="0px" y="0px"
	 viewBox="0 0 309.9 309.9" enable-background="new 0 0 309.9 309.9" xml:space="preserve">
<g>
	<path d="M273.2,191c-16.9,1-39.2,18-60.7,27.7c-26.3,11.9-67.4,2.3-67.4,2.3c6.3-3,32-9.1,37.2-11.4c27.5-12.1,25.2-37.4,12.1-37.1
		c-17.3,0.3-27.5,4.5-62.1,9.3c-26.2,3.6-57.2,2.3-72,7.9c-21,8-54.8,61.9-54.8,61.9l52.3,50.6c0,0,32.3-31.8,48.1-31.8
		c35.9,0,37.3-0.5,70.6-2.3c14.1-0.8,17.1-1.3,25.2-4.1c43.2-14.6,89.5-53.4,90.4-58.1C294,195.1,282.2,190.5,273.2,191L273.2,191z
		 M273.2,191"/>
	<path d="M201.1,112.7c0.9,0.2,1.8-0.2,2.3-1c12-19.3,30.1-42.7,53.8-58.6c-22,21.2-37.6,43.4-47,64.4c-0.3,0.6-0.3,1.4,0.1,2
		c0.3,0.6,0.9,1,1.6,1.1c1.5,0.2,3.1,0.3,4.7,0.3c15.1,0,30.1-9.2,40.1-16.9c11.4-8.8,22.3-20.5,29.2-31.1
		c10.4-16,16.9-35.8,18.3-55.7c0-0.6-0.2-1.3-0.6-1.7c-0.4-0.4-1.1-0.7-1.7-0.6c-15,1.1-52.4,5.9-74.2,27.7
		c-0.8,0.7-8.8,8.1-16.3,19.9c-10.2,16.2-14.4,33-12,48.6C199.5,111.8,200.2,112.5,201.1,112.7L201.1,112.7z M201.1,112.7"/>
	<g>
		<defs>
			<rect id="SVGID_1_" x="5.5" y="7.4" width="298.8" height="295"/>
		</defs>
		<clipPath id="SVGID_2_">
			<use xlink:href="#SVGID_1_"  overflow="visible"/>
		</clipPath>
		<path clip-path="url(#SVGID_2_)" d="M141.4,135.9c9.5,7.4,23.8,16.1,38.2,16.1c1.5,0,3.1-0.1,4.5-0.3c0.7-0.1,1.2-0.5,1.5-1.1
			c0.3-0.6,0.3-1.3,0.1-1.9c-9-20-23.8-41.2-44.8-61.4c22.5,15.2,39.8,37.5,51.2,55.9c0.5,0.7,1.3,1.1,2.2,0.9
			c0.9-0.2,1.5-0.9,1.6-1.7c2.3-14.8-1.7-30.8-11.4-46.3c-7.1-11.3-14.8-18.3-15.5-19c-20.8-20.8-56.4-25.4-70.7-26.4
			c-0.6,0-1.2,0.2-1.6,0.6c-0.4,0.4-0.6,1-0.6,1.6c1.3,18.9,7.5,37.8,17.4,53.1C120.2,116.4,130.6,127.5,141.4,135.9L141.4,135.9z
			 M141.4,135.9"/>
		<path clip-path="url(#SVGID_2_)" d="M161.9,64c6.3,4.9,15.9,10.7,25.4,10.7c1,0,2-0.1,3-0.2c0.4-0.1,0.8-0.3,1-0.7
			c0.2-0.4,0.2-0.8,0.1-1.2c-6-13.3-15.9-27.4-29.8-40.9c15,10.1,26.5,24.9,34.1,37.2c0.3,0.5,0.9,0.7,1.5,0.6
			c0.6-0.1,1-0.6,1.1-1.1c1.5-9.9-1.1-20.5-7.6-30.8c-4.7-7.5-9.8-12.2-10.3-12.6c-13.9-13.8-37.5-16.9-47.1-17.6
			c-0.4,0-0.8,0.1-1.1,0.4c-0.3,0.3-0.4,0.7-0.4,1.1c0.9,12.6,5,25.2,11.6,35.3C147.8,51.1,154.7,58.5,161.9,64L161.9,64z M161.9,64
			"/>
	</g>
</g>
</svg>
