<?xml version="1.0" encoding="utf-8"?>
<!-- Generator: Adobe Illustrator 18.0.0, SVG Export Plug-In . SVG Version: 6.00 Build 0)  -->
<!DOCTYPE svg PUBLIC "-//W3C//DTD SVG 1.1//EN" "http://www.w3.org/Graphics/SVG/1.1/DTD/svg11.dtd">
<svg version="1.1" id="Camada_1" xmlns="http://www.w3.org/2000/svg" xmlns:xlink="http://www.w3.org/1999/xlink" x="0px" y="0px"
	 viewBox="0 0 41.5 41.5" enable-background="new 0 0 41.5 41.5" xml:space="preserve">
<g>
	<g>
		<defs>
			<rect id="SVGID_1_" x="0.8" y="1.2" width="39.8" height="39"/>
		</defs>
		<clipPath id="SVGID_2_">
			<use xlink:href="#SVGID_1_"  overflow="visible"/>
		</clipPath>
		<path clip-path="url(#SVGID_2_)" d="M3,19.5c0,0,0.1,0.1,0.2,0.1c1.9-5.1,6.5-9.8,6.5-9.8C7.5,12.5,6.4,18,5.9,21.1
			c2.2,0.7,5.1,0.9,7.7-1.7C18.1,14.8,13,9,20.9,3.8c0,0-10.2-2.8-16.6,3.7C-2.3,14.1,2.4,19,3,19.5L3,19.5z M3,19.5"/>
		<path clip-path="url(#SVGID_2_)" d="M35.3,24.7c0,0,7-7.8,4.1-16.6c-3-8.7-9.5-6.7-10.2-6.5c0,0-0.1,0-0.2,0.1
			c3.7,4,5.8,10.2,5.8,10.2c-1.4-3.1-5.8-6.6-8.4-8.4c-1.6,1.6-3.1,4.2-1.9,7.7C26.6,17.3,34.2,15.3,35.3,24.7L35.3,24.7z
			 M35.3,24.7"/>
		<path clip-path="url(#SVGID_2_)" d="M31.7,30.6c-0.6-2.2-2.2-4.7-5.8-5.4c-6.3-1.1-8.2,6.5-17,2.9c0,0,3.5,9.9,12.5,11.6
			c9.1,1.6,10.5-5,10.6-5.8c0-0.1,0-0.1,0-0.2c-5.3,1.3-11.8,0.2-11.8,0.2C23.7,34.2,28.9,32,31.7,30.6L31.7,30.6z M31.7,30.6"/>
	</g>
</g>
</svg>
