<?xml version="1.0" encoding="utf-8"?>
<!-- Generator: Adobe Illustrator 18.0.0, SVG Export Plug-In . SVG Version: 6.00 Build 0)  -->
<!DOCTYPE svg PUBLIC "-//W3C//DTD SVG 1.1//EN" "http://www.w3.org/Graphics/SVG/1.1/DTD/svg11.dtd">
<svg version="1.1" id="Camada_1" xmlns="http://www.w3.org/2000/svg" xmlns:xlink="http://www.w3.org/1999/xlink" x="0px" y="0px"
	 viewBox="0 0 328.5 328.5" enable-background="new 0 0 328.5 328.5" xml:space="preserve">
<g>
	<path d="M317.6,165.6c-1-0.2-18.4-3.6-41.8-5.3c0.1-2.2,0.2-4.3,0.2-6.5c0-67.4-54.8-122.2-122.2-122.2
		c-67.4,0-122.2,54.8-122.2,122.2c0,14.2,2.4,27.8,6.9,40.5c-15.6,1.3-27,3.5-27.6,3.6l-8.8,1.7l3.8,8.1
		c1.2,2.5,29.3,61.4,64.6,79.3c12.7,6.4,24.6,9.7,35.4,9.7h0c16,0,29.1-7.2,37.4-20.5c10.8,12.9,26.1,19.9,44.1,19.9
		c14.4,0,30.3-4.4,47.5-13c47.7-24.1,86-104.3,87.6-107.7l3.8-8.1L317.6,165.6z M254.4,114.1c-4.6-3.8-9.9-7.3-15.9-10.5
		c-7.4-4-15.6-7.4-24.3-10.2c-2.8-8.8-6.2-16.9-10.2-24.3c-3.2-6-6.8-11.3-10.5-15.9C221.3,64.2,243.4,86.4,254.4,114.1L254.4,114.1
		z M261.1,146.9h-38c-0.4-12.8-1.9-25.3-4.4-37C241.3,118.7,257.2,132,261.1,146.9L261.1,146.9z M160.8,46.6
		c14.9,3.8,28.2,19.8,37,42.5c-11.7-2.5-24.2-4-37-4.4V46.6z M160.8,98.6c15,0.5,29.3,2.7,42.2,6.1c3.5,12.9,5.6,27.1,6.1,42.2
		h-48.3V98.6z M160.8,160.8h48.3c0,0.6,0,1.2-0.1,1.8c-11.6,2.2-21.7,5.4-30.1,9.6c-6.7,3.4-12.7,7-18.1,10.8V160.8z M146.8,46.6v38
		c-12.8,0.4-25.3,1.9-37,4.4C118.6,66.4,131.9,50.4,146.8,46.6L146.8,46.6z M146.8,98.6v48.3H98.5c0.5-15,2.7-29.3,6.1-42.2
		C117.5,101.3,131.8,99.1,146.8,98.6L146.8,98.6z M114.1,53.2c-3.8,4.6-7.3,9.9-10.5,15.9c-4,7.4-7.4,15.6-10.2,24.3
		c-8.8,2.8-16.9,6.2-24.3,10.2c-6,3.2-11.3,6.8-15.9,10.5C64.1,86.4,86.3,64.2,114.1,53.2L114.1,53.2z M89,109.8
		c-2.5,11.7-4,24.2-4.4,37H46.5C50.3,132,66.3,118.7,89,109.8L89,109.8z M84.5,160.8c0.4,12,1.7,23.6,3.9,34.7
		c-2.4-0.4-4.9-0.7-7.4-1c-18.4-8.7-31.2-20.5-34.6-33.6H84.5z M128,273.5c-4.6,5.1-11.6,9.3-22.1,9.3h0c-8.6,0-18.3-2.8-29.1-8.2
		c-23.8-12-45.2-48-54-64.4c8.8-1.3,22.9-2.9,37.8-2.9c19.9,0,35.4,2.7,46.1,8.1c9.6,4.9,17,10.3,22,16.1c-1,10.2,0.9,20.6,5.8,30.8
		l-70.6-33L128,273.5z M118.9,206.2c-1.9-1.1-3.8-2.1-5.8-3.2c-2.9-1.4-6-2.7-9.4-3.8c-2.9-11.8-4.7-24.8-5.2-38.3h48.3V195
		c-4.1,4.3-7.6,8.8-10.4,13.5C130.4,208,124.5,207.2,118.9,206.2L118.9,206.2z M228.6,270.7c-15.2,7.7-29,11.5-41.2,11.5
		c-16.2,0-26.7-6.9-33.5-15l96.9-62.1l-103.1,52.6c0,0,0-0.1-0.1-0.1c-13.8-27.3-0.1-53.9,37.5-72.9c15-7.6,36.7-11.4,64.5-11.4
		c22.9,0,44.4,2.7,56.1,4.5C294.8,198.7,263.6,253,228.6,270.7L228.6,270.7z M228.6,270.7"/>
</g>
</svg>
