<?xml version="1.0" encoding="utf-8"?>
<!-- Generator: Adobe Illustrator 18.0.0, SVG Export Plug-In . SVG Version: 6.00 Build 0)  -->
<!DOCTYPE svg PUBLIC "-//W3C//DTD SVG 1.1//EN" "http://www.w3.org/Graphics/SVG/1.1/DTD/svg11.dtd">
<svg version="1.1" id="Camada_1" xmlns="http://www.w3.org/2000/svg" xmlns:xlink="http://www.w3.org/1999/xlink" x="0px" y="0px"
	 viewBox="0 0 261.9 261.9" enable-background="new 0 0 261.9 261.9" xml:space="preserve">
<g>
	<g>
		<defs>
			<rect id="SVGID_1_" x="9" y="32.9" width="243.8" height="196"/>
		</defs>
		<clipPath id="SVGID_2_">
			<use xlink:href="#SVGID_1_"  overflow="visible"/>
		</clipPath>
		<path clip-path="url(#SVGID_2_)" d="M220.7,65.4c1.2,8.1,2,16.5,2.3,24.7c8.4,10,13.2,21.4,13.2,33.4c0,38.1-48.3,70.2-105.4,70.2
			c-8.8,0-18-0.8-27.2-2.5c-1-0.2-1.9-0.3-2.9-0.3c-4,0-7.9,1.5-10.9,4.2c-9,8.2-20.8,12.6-32.3,14.8c3.1-5,5.8-10.5,7.9-16.6
			c2.5-7.2-0.3-15.1-6.7-19.1c-21.1-13.4-33.3-31.9-33.3-50.8c0-38.1,48.3-70.2,105.4-70.2c11.3,0,22.3,1.3,32.6,3.6
			c7.7-3.6,13.4-7.9,17.8-12.1c-15.4-5-32.4-7.8-50.3-7.8C63.5,37,9,75.8,9,123.6c0,25.7,15.8,48.7,40.8,64.5
			c-5.1,14.5-15.6,30-37.4,35.6c-0.8,0.2-1.4,1-1.3,1.8c0.1,0.8,0.7,1.5,1.5,1.6c5.5,0.7,13,1.3,21.4,1.3c20.9,0,47.7-4,66.6-21.1
			c9.6,1.8,19.7,2.8,30.1,2.8c67.2,0,121.7-38.7,121.7-86.5C252.5,101.1,240.4,80.8,220.7,65.4L220.7,65.4z M220.7,65.4"/>
		<path clip-path="url(#SVGID_2_)" d="M119.5,134.2c-0.3,0.1-0.5,0.2-0.8,0.3c-25.1,12.8-33.3,29.5-36,39.9c-0.2,0.8,0.2,1.7,1,2
			c0.8,0.3,1.7,0,2.1-0.7c5.4-8.8,16.5-22.5,37.1-31.9c11-5,43.6-23.5,59.1-45.6c0.4-0.5,1-0.7,1.6-0.4c0.6,0.3,0.8,0.9,0.7,1.5
			c-9,29.8-38.6,50.3-43.3,53.2c6.9,3,14,4.5,20.9,4.5c19.6,0,38.2-11.6,48.3-33.9c9.9-21.7,2-63.7-3.5-86.7c-0.5-1.9-2.1-3.3-4-3.6
			c-2-0.2-3.8,0.8-4.7,2.6c-6.2,12.6-21,29.6-55.8,36.9C114.2,80.2,107.2,112.5,119.5,134.2L119.5,134.2z M119.5,134.2"/>
	</g>
</g>
</svg>
