<?xml version="1.0" encoding="utf-8"?>
<!-- Generator: Adobe Illustrator 18.0.0, SVG Export Plug-In . SVG Version: 6.00 Build 0)  -->
<!DOCTYPE svg PUBLIC "-//W3C//DTD SVG 1.1//EN" "http://www.w3.org/Graphics/SVG/1.1/DTD/svg11.dtd">
<svg version="1.1" id="Camada_1" xmlns="http://www.w3.org/2000/svg" xmlns:xlink="http://www.w3.org/1999/xlink" x="0px" y="0px"
	 viewBox="0 0 151.7 48.2" enable-background="new 0 0 151.7 48.2" xml:space="preserve">
<g>
	<path fill-rule="evenodd" clip-rule="evenodd" fill="#127E3F" d="M1.2,29L64.6,33c8.2-8.2,14.3-10.2,24.5-2
		c8.2-2,16.4-6.1,28.6-8.2l-12.3-8.2l-6.1,2l-4.1,4.1l-10.2-6.1C60.5,10.5,81,24.9,3.3,26.9L1.2,29z"/>
	<path fill-rule="evenodd" clip-rule="evenodd" fill="#191415" d="M64.6,33c8.2-8.2,16.4-10.2,24.5,0c12.3-6.1,24.5-12.3,34.8-8.2
		c8.2,4.1,18.4,6.1,26.6,6.1v-2c-8.2,0-16.4-2-28.6-6.1c0,0-2,0-4.1,0c-8.2-8.2-16.4-12.3-22.5-4.1c-10.2-8.2-18.4-8.2-32.7,0
		c-12.3,6.1-36.8,6.1-59.3,8.2c-2,0,0,0-2,0c16.4,0,26.6,0,53.2-4.1c16.4-4.1,24.5-16.4,40.9,0c8.2-12.3,14.3-4.1,22.5,0
		c-12.3,0-24.5,6.1-28.6,8.2C81,22.8,72.8,22.8,64.6,33L64.6,33z"/>
</g>
<g>
	<path d="M2.1,5C2.2,4.5,2.5,4,2.8,3.6C3.1,3.3,3.6,3,4,2.7c0.5-0.2,1-0.3,1.7-0.3c0.5,0,0.9,0.1,1.3,0.2c0.4,0.1,0.7,0.3,1,0.5
		c0.3,0.2,0.5,0.4,0.6,0.7c0.1,0.2,0.2,0.5,0.2,0.7c0,0.5-0.3,0.8-0.8,0.8c-0.2,0-0.4,0-0.5-0.1S7.3,4.9,7.2,4.7
		C7,4.4,6.8,4.2,6.6,4.1S6.1,3.9,5.7,3.9c-0.6,0-1.1,0.2-1.5,0.7c-0.4,0.5-0.6,1.1-0.6,2c0,0.4,0,0.7,0.1,1S4,8.2,4.1,8.5
		C4.3,8.7,4.5,8.9,4.8,9c0.3,0.1,0.6,0.2,1,0.2c0.4,0,0.6-0.1,0.8-0.2C6.8,8.9,7,8.6,7.2,8.4C7.3,8.1,7.5,8,7.6,7.9
		C7.7,7.8,7.9,7.7,8,7.7c0.2,0,0.4,0.1,0.6,0.2C8.8,8,8.9,8.2,8.9,8.4c0,0.3-0.1,0.6-0.2,0.8C8.5,9.5,8.3,9.8,8,10
		c-0.3,0.2-0.6,0.4-1,0.5c-0.4,0.1-0.8,0.2-1.2,0.2c-1.3,0-2.2-0.4-2.9-1.1c-0.7-0.7-1-1.7-1-3.1C1.8,6,1.9,5.5,2.1,5z"/>
	<path d="M9.9,4.8c0.2-0.5,0.4-0.9,0.8-1.3s0.8-0.6,1.3-0.8c0.5-0.2,1.1-0.3,1.7-0.3c0.6,0,1.2,0.1,1.7,0.3c0.5,0.2,0.9,0.5,1.3,0.8
		c0.3,0.4,0.6,0.8,0.8,1.3c0.2,0.5,0.3,1,0.3,1.6c0,0.6-0.1,1.1-0.2,1.6S17,9,16.7,9.4c-0.3,0.4-0.8,0.7-1.3,0.9
		c-0.5,0.2-1.1,0.3-1.7,0.3c-0.7,0-1.3-0.1-1.8-0.3c-0.5-0.2-0.9-0.5-1.3-0.9s-0.6-0.8-0.7-1.3C9.7,7.6,9.7,7.1,9.7,6.5
		C9.7,5.9,9.8,5.3,9.9,4.8z M11.6,7.6c0.1,0.3,0.2,0.6,0.4,0.9c0.2,0.3,0.4,0.5,0.7,0.6c0.3,0.1,0.6,0.2,1,0.2c0.4,0,0.7-0.1,1-0.2
		c0.3-0.1,0.5-0.3,0.7-0.6c0.2-0.3,0.3-0.6,0.4-0.9c0.1-0.3,0.1-0.7,0.1-1.1c0-0.8-0.2-1.4-0.6-1.9c-0.4-0.5-0.9-0.7-1.6-0.7
		S12.4,4.1,12,4.6c-0.4,0.5-0.6,1.1-0.6,1.9C11.5,6.9,11.5,7.2,11.6,7.6z"/>
	<path d="M19,3.5c0-0.4,0.1-0.6,0.3-0.8c0.2-0.2,0.5-0.2,0.9-0.2c0.4,0,0.7,0.2,0.9,0.5L24.2,8h0V3.3c0-0.6,0.3-0.9,0.9-0.9
		s0.9,0.3,0.9,0.9v6.2c0,0.4-0.1,0.6-0.3,0.8c-0.2,0.2-0.4,0.3-0.8,0.3c-0.3,0-0.5,0-0.6-0.1s-0.3-0.2-0.4-0.4l-3.1-5h0v4.6
		c0,0.6-0.3,0.9-0.9,0.9S19,10.4,19,9.8V3.5z"/>
	<path d="M27.6,3.7c0-0.4,0.1-0.7,0.3-0.8c0.2-0.2,0.4-0.2,0.8-0.2h2.2c0.5,0,1,0.1,1.5,0.2c0.4,0.1,0.8,0.3,1.2,0.6
		c0.3,0.3,0.6,0.7,0.8,1.2c0.2,0.5,0.3,1.1,0.3,1.9c0,1.3-0.3,2.2-1,2.9c-0.7,0.7-1.6,1-2.8,1h-2.2c-0.3,0-0.6-0.1-0.8-0.2
		c-0.2-0.2-0.3-0.4-0.3-0.8V3.7z M29.4,9.1h1.5c0.3,0,0.6-0.1,0.9-0.2c0.2-0.1,0.4-0.3,0.6-0.6s0.3-0.5,0.3-0.8
		c0.1-0.3,0.1-0.6,0.1-0.9c0-0.8-0.2-1.4-0.5-1.9c-0.3-0.4-0.8-0.7-1.4-0.7h-1.5V9.1z"/>
	<path d="M35.8,4.8c0.2-0.5,0.4-0.9,0.8-1.3s0.8-0.6,1.3-0.8c0.5-0.2,1.1-0.3,1.7-0.3c0.6,0,1.2,0.1,1.7,0.3
		c0.5,0.2,0.9,0.5,1.3,0.8c0.3,0.4,0.6,0.8,0.8,1.3c0.2,0.5,0.3,1,0.3,1.6c0,0.6-0.1,1.1-0.2,1.6s-0.4,1-0.8,1.4
		c-0.3,0.4-0.8,0.7-1.3,0.9c-0.5,0.2-1.1,0.3-1.7,0.3c-0.7,0-1.3-0.1-1.8-0.3c-0.5-0.2-0.9-0.5-1.3-0.9s-0.6-0.8-0.7-1.3
		c-0.2-0.5-0.2-1.1-0.2-1.7C35.6,5.9,35.6,5.3,35.8,4.8z M37.5,7.6c0.1,0.3,0.2,0.6,0.4,0.9C38,8.7,38.2,8.9,38.5,9
		c0.3,0.1,0.6,0.2,1,0.2c0.4,0,0.7-0.1,1-0.2c0.3-0.1,0.5-0.3,0.7-0.6c0.2-0.3,0.3-0.6,0.4-0.9c0.1-0.3,0.1-0.7,0.1-1.1
		c0-0.8-0.2-1.4-0.6-1.9c-0.4-0.5-0.9-0.7-1.6-0.7s-1.3,0.2-1.6,0.7c-0.4,0.5-0.6,1.1-0.6,1.9C37.4,6.9,37.4,7.2,37.5,7.6z"/>
	<path d="M44.8,3.3c0-0.3,0.1-0.6,0.3-0.7c0.2-0.1,0.4-0.2,0.7-0.2h0.5c0.3,0,0.5,0.1,0.6,0.2c0.2,0.1,0.3,0.3,0.4,0.6l1.6,5.1h0
		l1.6-5.1c0.1-0.3,0.2-0.5,0.4-0.6c0.1-0.1,0.4-0.2,0.6-0.2H52c0.3,0,0.5,0.1,0.7,0.2C52.9,2.8,53,3,53,3.3v6.4
		c0,0.2-0.1,0.5-0.2,0.6c-0.1,0.2-0.3,0.3-0.6,0.3s-0.5-0.1-0.6-0.3c-0.1-0.2-0.2-0.4-0.2-0.6V4.9h0l-1.7,5.3
		c-0.1,0.4-0.4,0.5-0.8,0.5c-0.4,0-0.7-0.2-0.8-0.5l-1.7-5.3h0v4.9c0,0.2-0.1,0.5-0.2,0.6c-0.1,0.2-0.3,0.3-0.6,0.3
		c-0.3,0-0.5-0.1-0.6-0.3c-0.1-0.2-0.2-0.4-0.2-0.6V3.3z"/>
	<path d="M55.7,0.5c0.1-0.1,0.3-0.2,0.4-0.3c0.1-0.1,0.2-0.1,0.3-0.1c0.2,0,0.3,0.1,0.4,0.2c0.1,0.1,0.1,0.3,0.1,0.4
		c0,0.2-0.1,0.4-0.4,0.6l-1,0.7c-0.1,0.1-0.2,0.1-0.3,0.2c-0.1,0-0.1,0-0.2,0c-0.1,0-0.3,0-0.4-0.1c-0.1-0.1-0.2-0.2-0.2-0.4
		c0-0.1,0-0.2,0.1-0.3c0-0.1,0.1-0.2,0.2-0.3L55.7,0.5z M54.6,3.4c0-0.3,0.1-0.5,0.2-0.7c0.2-0.2,0.4-0.2,0.7-0.2
		c0.3,0,0.5,0.1,0.7,0.2c0.2,0.2,0.2,0.4,0.2,0.7v6.4c0,0.3-0.1,0.5-0.2,0.7c-0.2,0.2-0.4,0.2-0.7,0.2c-0.3,0-0.5-0.1-0.7-0.2
		c-0.2-0.2-0.2-0.4-0.2-0.7V3.4z"/>
	<path d="M58.1,3.5c0-0.4,0.1-0.6,0.3-0.8c0.2-0.2,0.5-0.2,0.9-0.2c0.4,0,0.7,0.2,0.9,0.5L63.3,8h0V3.3c0-0.6,0.3-0.9,0.9-0.9
		S65,2.7,65,3.3v6.2c0,0.4-0.1,0.6-0.3,0.8c-0.2,0.2-0.4,0.3-0.8,0.3c-0.3,0-0.5,0-0.6-0.1s-0.3-0.2-0.4-0.4l-3.1-5h0v4.6
		c0,0.6-0.3,0.9-0.9,0.9s-0.9-0.3-0.9-0.9V3.5z"/>
	<path d="M66.7,3.4c0-0.3,0.1-0.5,0.2-0.7c0.2-0.2,0.4-0.2,0.7-0.2c0.3,0,0.5,0.1,0.7,0.2c0.2,0.2,0.2,0.4,0.2,0.7v6.4
		c0,0.3-0.1,0.5-0.2,0.7c-0.2,0.2-0.4,0.2-0.7,0.2c-0.3,0-0.5-0.1-0.7-0.2c-0.2-0.2-0.2-0.4-0.2-0.7V3.4z"/>
	<path d="M70.1,4.8c0.2-0.5,0.4-0.9,0.8-1.3s0.8-0.6,1.3-0.8c0.5-0.2,1.1-0.3,1.7-0.3c0.6,0,1.2,0.1,1.7,0.3
		c0.5,0.2,0.9,0.5,1.3,0.8c0.3,0.4,0.6,0.8,0.8,1.3c0.2,0.5,0.3,1,0.3,1.6c0,0.6-0.1,1.1-0.2,1.6s-0.4,1-0.8,1.4
		c-0.3,0.4-0.8,0.7-1.3,0.9c-0.5,0.2-1.1,0.3-1.7,0.3c-0.7,0-1.3-0.1-1.8-0.3c-0.5-0.2-0.9-0.5-1.3-0.9S70.2,8.7,70,8.2
		c-0.2-0.5-0.2-1.1-0.2-1.7C69.8,5.9,69.9,5.3,70.1,4.8z M71.7,7.6c0.1,0.3,0.2,0.6,0.4,0.9c0.2,0.3,0.4,0.5,0.7,0.6
		c0.3,0.1,0.6,0.2,1,0.2c0.4,0,0.7-0.1,1-0.2c0.3-0.1,0.5-0.3,0.7-0.6c0.2-0.3,0.3-0.6,0.4-0.9C76,7.2,76,6.9,76,6.5
		c0-0.8-0.2-1.4-0.6-1.9c-0.4-0.5-0.9-0.7-1.6-0.7s-1.3,0.2-1.6,0.7c-0.4,0.5-0.6,1.1-0.6,1.9C71.6,6.9,71.6,7.2,71.7,7.6z"/>
	<path d="M82.5,3.7c0-0.4,0.1-0.7,0.3-0.8c0.2-0.2,0.4-0.2,0.8-0.2h4.2c0.3,0,0.5,0.1,0.7,0.2c0.2,0.1,0.2,0.3,0.2,0.6
		c0,0.3-0.1,0.5-0.2,0.6c-0.2,0.1-0.4,0.2-0.7,0.2h-3.5v1.7h3.1c0.3,0,0.5,0,0.6,0.1s0.2,0.3,0.2,0.5c0,0.3-0.1,0.4-0.2,0.5
		c-0.2,0.1-0.4,0.2-0.6,0.2h-3.1v1.9h3.6c0.3,0,0.5,0.1,0.7,0.2c0.2,0.1,0.2,0.3,0.2,0.6c0,0.3-0.1,0.5-0.2,0.6
		c-0.2,0.1-0.4,0.2-0.7,0.2h-4.3c-0.3,0-0.6-0.1-0.8-0.2c-0.2-0.2-0.3-0.4-0.3-0.8V3.7z"/>
	<path d="M90,5c0.2-0.5,0.4-0.9,0.7-1.3C91.1,3.3,91.5,3,92,2.7c0.5-0.2,1-0.3,1.7-0.3c0.5,0,0.9,0.1,1.3,0.2c0.4,0.1,0.7,0.3,1,0.5
		c0.3,0.2,0.5,0.4,0.6,0.7c0.1,0.2,0.2,0.5,0.2,0.7c0,0.5-0.3,0.8-0.8,0.8c-0.2,0-0.4,0-0.5-0.1s-0.3-0.2-0.4-0.4
		c-0.2-0.3-0.4-0.5-0.6-0.6s-0.5-0.2-0.9-0.2c-0.6,0-1.1,0.2-1.5,0.7c-0.4,0.5-0.6,1.1-0.6,2c0,0.4,0,0.7,0.1,1s0.2,0.6,0.4,0.9
		c0.2,0.2,0.4,0.4,0.7,0.6c0.3,0.1,0.6,0.2,1,0.2c0.4,0,0.6-0.1,0.8-0.2c0.2-0.2,0.4-0.4,0.6-0.7c0.2-0.2,0.3-0.4,0.4-0.5
		c0.1-0.1,0.3-0.1,0.4-0.1c0.2,0,0.4,0.1,0.6,0.2c0.2,0.1,0.3,0.3,0.3,0.5c0,0.3-0.1,0.6-0.2,0.8c-0.2,0.3-0.4,0.5-0.7,0.7
		c-0.3,0.2-0.6,0.4-1,0.5c-0.4,0.1-0.8,0.2-1.2,0.2c-1.3,0-2.2-0.4-2.9-1.1c-0.7-0.7-1-1.7-1-3.1C89.8,6,89.9,5.5,90,5z"/>
	<path d="M97.9,4.8c0.2-0.5,0.4-0.9,0.8-1.3s0.8-0.6,1.3-0.8c0.5-0.2,1.1-0.3,1.7-0.3c0.6,0,1.2,0.1,1.7,0.3
		c0.5,0.2,0.9,0.5,1.3,0.8c0.3,0.4,0.6,0.8,0.8,1.3c0.2,0.5,0.3,1,0.3,1.6c0,0.6-0.1,1.1-0.2,1.6s-0.4,1-0.8,1.4
		c-0.3,0.4-0.8,0.7-1.3,0.9c-0.5,0.2-1.1,0.3-1.7,0.3c-0.7,0-1.3-0.1-1.8-0.3c-0.5-0.2-0.9-0.5-1.3-0.9S98,8.7,97.9,8.2
		c-0.2-0.5-0.2-1.1-0.2-1.7C97.6,5.9,97.7,5.3,97.9,4.8z M99.5,7.6c0.1,0.3,0.2,0.6,0.4,0.9c0.2,0.3,0.4,0.5,0.7,0.6
		c0.3,0.1,0.6,0.2,1,0.2c0.4,0,0.7-0.1,1-0.2c0.3-0.1,0.5-0.3,0.7-0.6c0.2-0.3,0.3-0.6,0.4-0.9c0.1-0.3,0.1-0.7,0.1-1.1
		c0-0.8-0.2-1.4-0.6-1.9c-0.4-0.5-0.9-0.7-1.6-0.7s-1.3,0.2-1.6,0.7c-0.4,0.5-0.6,1.1-0.6,1.9C99.4,6.9,99.5,7.2,99.5,7.6z"/>
	<path d="M106.9,3.4c0-0.3,0.1-0.5,0.2-0.7c0.2-0.2,0.4-0.2,0.7-0.2c0.3,0,0.5,0.1,0.7,0.2c0.2,0.2,0.2,0.4,0.2,0.7V9h3
		c0.3,0,0.5,0.1,0.7,0.2c0.2,0.1,0.3,0.3,0.3,0.6c0,0.2-0.1,0.4-0.3,0.6c-0.2,0.1-0.4,0.2-0.7,0.2H108c-0.3,0-0.6-0.1-0.8-0.2
		c-0.2-0.2-0.3-0.4-0.3-0.8V3.4z"/>
	<path d="M113.6,4.8c0.2-0.5,0.4-0.9,0.8-1.3s0.8-0.6,1.3-0.8c0.5-0.2,1.1-0.3,1.7-0.3c0.6,0,1.2,0.1,1.7,0.3
		c0.5,0.2,0.9,0.5,1.3,0.8c0.3,0.4,0.6,0.8,0.8,1.3c0.2,0.5,0.3,1,0.3,1.6c0,0.6-0.1,1.1-0.2,1.6s-0.4,1-0.8,1.4
		c-0.3,0.4-0.8,0.7-1.3,0.9c-0.5,0.2-1.1,0.3-1.7,0.3c-0.7,0-1.3-0.1-1.8-0.3c-0.5-0.2-0.9-0.5-1.3-0.9s-0.6-0.8-0.7-1.3
		c-0.2-0.5-0.2-1.1-0.2-1.7C113.3,5.9,113.4,5.3,113.6,4.8z M115.2,7.6c0.1,0.3,0.2,0.6,0.4,0.9c0.2,0.3,0.4,0.5,0.7,0.6
		c0.3,0.1,0.6,0.2,1,0.2c0.4,0,0.7-0.1,1-0.2c0.3-0.1,0.5-0.3,0.7-0.6c0.2-0.3,0.3-0.6,0.4-0.9c0.1-0.3,0.1-0.7,0.1-1.1
		c0-0.8-0.2-1.4-0.6-1.9c-0.4-0.5-0.9-0.7-1.6-0.7s-1.3,0.2-1.6,0.7c-0.4,0.5-0.6,1.1-0.6,1.9C115.1,6.9,115.2,7.2,115.2,7.6z
		 M117.5,0.5c0.1-0.1,0.3-0.2,0.4-0.3c0.1-0.1,0.2-0.1,0.3-0.1c0.2,0,0.3,0.1,0.4,0.2c0.1,0.1,0.1,0.3,0.1,0.4
		c0,0.2-0.1,0.4-0.4,0.6l-1,0.7c-0.1,0.1-0.2,0.1-0.3,0.2c-0.1,0-0.1,0-0.2,0c-0.1,0-0.3,0-0.4-0.1c-0.1-0.1-0.2-0.2-0.2-0.4
		c0-0.1,0-0.2,0.1-0.3c0-0.1,0.1-0.2,0.2-0.3L117.5,0.5z"/>
	<path d="M130,10.1c0,0.2-0.1,0.3-0.2,0.4s-0.3,0.2-0.4,0.2c-0.3,0-0.4-0.1-0.5-0.2c-0.1-0.2-0.2-0.4-0.2-0.8
		c-0.3,0.3-0.6,0.6-1,0.8c-0.4,0.2-0.8,0.3-1.4,0.3c-0.7,0-1.3-0.1-1.8-0.3c-0.5-0.2-0.9-0.5-1.2-0.9c-0.3-0.4-0.5-0.8-0.7-1.3
		c-0.1-0.5-0.2-1-0.2-1.6c0-0.7,0.1-1.2,0.3-1.8s0.5-1,0.8-1.3s0.8-0.6,1.3-0.8c0.5-0.2,1.1-0.3,1.7-0.3c0.5,0,0.9,0.1,1.3,0.2
		c0.4,0.1,0.7,0.3,1,0.5c0.3,0.2,0.5,0.4,0.6,0.6c0.1,0.2,0.2,0.4,0.2,0.6c0,0.3-0.1,0.5-0.2,0.6c-0.2,0.1-0.4,0.2-0.6,0.2
		c-0.2,0-0.3,0-0.4-0.1c-0.1-0.1-0.2-0.2-0.3-0.3c-0.1-0.1-0.2-0.2-0.2-0.3c-0.1-0.1-0.2-0.2-0.3-0.2C127.4,4,127.2,4,127,3.9
		s-0.4-0.1-0.6-0.1c-0.7,0-1.2,0.2-1.6,0.7c-0.4,0.5-0.6,1.2-0.6,2.1c0,0.8,0.2,1.4,0.6,1.9s0.9,0.7,1.7,0.7c0.5,0,0.9-0.1,1.3-0.5
		c0.4-0.3,0.6-0.7,0.6-1.2h-1.2c-0.2,0-0.4-0.1-0.6-0.2c-0.2-0.1-0.2-0.3-0.2-0.5c0-0.5,0.2-0.7,0.7-0.7h2.2c0.3,0,0.4,0.1,0.6,0.2
		c0.1,0.1,0.2,0.3,0.2,0.6V10.1z"/>
	<path d="M131.6,3.4c0-0.3,0.1-0.5,0.2-0.7c0.2-0.2,0.4-0.2,0.7-0.2c0.3,0,0.5,0.1,0.7,0.2c0.2,0.2,0.2,0.4,0.2,0.7v6.4
		c0,0.3-0.1,0.5-0.2,0.7c-0.2,0.2-0.4,0.2-0.7,0.2c-0.3,0-0.5-0.1-0.7-0.2c-0.2-0.2-0.2-0.4-0.2-0.7V3.4z"/>
	<path d="M135.1,5c0.2-0.5,0.4-0.9,0.7-1.3c0.3-0.4,0.7-0.7,1.2-0.9c0.5-0.2,1-0.3,1.7-0.3c0.5,0,0.9,0.1,1.3,0.2
		c0.4,0.1,0.7,0.3,1,0.5c0.3,0.2,0.5,0.4,0.6,0.7c0.1,0.2,0.2,0.5,0.2,0.7c0,0.5-0.3,0.8-0.8,0.8c-0.2,0-0.4,0-0.5-0.1
		s-0.3-0.2-0.4-0.4c-0.2-0.3-0.4-0.5-0.6-0.6s-0.5-0.2-0.9-0.2c-0.6,0-1.1,0.2-1.5,0.7c-0.4,0.5-0.6,1.1-0.6,2c0,0.4,0,0.7,0.1,1
		s0.2,0.6,0.4,0.9c0.2,0.2,0.4,0.4,0.7,0.6c0.3,0.1,0.6,0.2,1,0.2c0.4,0,0.6-0.1,0.8-0.2c0.2-0.2,0.4-0.4,0.6-0.7
		c0.2-0.2,0.3-0.4,0.4-0.5c0.1-0.1,0.3-0.1,0.4-0.1c0.2,0,0.4,0.1,0.6,0.2c0.2,0.1,0.3,0.3,0.3,0.5c0,0.3-0.1,0.6-0.2,0.8
		c-0.2,0.3-0.4,0.5-0.7,0.7c-0.3,0.2-0.6,0.4-1,0.5c-0.4,0.1-0.8,0.2-1.2,0.2c-1.3,0-2.2-0.4-2.9-1.1c-0.7-0.7-1-1.7-1-3.1
		C134.8,6,134.9,5.5,135.1,5z"/>
	<path d="M142.9,4.8c0.2-0.5,0.4-0.9,0.8-1.3s0.8-0.6,1.3-0.8c0.5-0.2,1.1-0.3,1.7-0.3c0.6,0,1.2,0.1,1.7,0.3
		c0.5,0.2,0.9,0.5,1.3,0.8c0.3,0.4,0.6,0.8,0.8,1.3c0.2,0.5,0.3,1,0.3,1.6c0,0.6-0.1,1.1-0.2,1.6s-0.4,1-0.8,1.4
		c-0.3,0.4-0.8,0.7-1.3,0.9c-0.5,0.2-1.1,0.3-1.7,0.3c-0.7,0-1.3-0.1-1.8-0.3c-0.5-0.2-0.9-0.5-1.3-0.9s-0.6-0.8-0.7-1.3
		c-0.2-0.5-0.2-1.1-0.2-1.7C142.7,5.9,142.8,5.3,142.9,4.8z M144.6,7.6c0.1,0.3,0.2,0.6,0.4,0.9c0.2,0.3,0.4,0.5,0.7,0.6
		c0.3,0.1,0.6,0.2,1,0.2c0.4,0,0.7-0.1,1-0.2c0.3-0.1,0.5-0.3,0.7-0.6c0.2-0.3,0.3-0.6,0.4-0.9c0.1-0.3,0.1-0.7,0.1-1.1
		c0-0.8-0.2-1.4-0.6-1.9c-0.4-0.5-0.9-0.7-1.6-0.7s-1.3,0.2-1.6,0.7c-0.4,0.5-0.6,1.1-0.6,1.9C144.5,6.9,144.5,7.2,144.6,7.6z"/>
</g>
<g>
	<path d="M9.8,48.2v-0.6C11,47.6,11,47.5,11,46l0-6.7h-0.1l-3.3,8.8H7.1l-3-8.6H4l-0.2,4.4c-0.1,1.4-0.1,2.2,0,2.7
		c0.1,0.8,0.4,1,1.5,1.1v0.6H1.5v-0.6c0.9-0.1,1.1-0.3,1.2-0.9c0.1-0.5,0.2-1.5,0.3-3.1L3.3,40c0.1-1.9,0-2.1-1.3-2.2v-0.6h3.3
		l2.8,7.2l2.9-7.2h3.3v0.6C13.1,38,13,38.1,13,39.4l0.2,6.6c0,1.5,0.1,1.6,1.3,1.7v0.6H9.8z"/>
	<path d="M21,48.2v-0.6c0.9-0.1,1-0.3,0.7-1.2c-0.2-0.5-0.4-1.2-0.6-1.8h-2.9c-0.1,0.4-0.3,1-0.5,1.7c-0.3,0.9-0.2,1.1,1,1.3v0.6
		h-3.5v-0.6c1-0.1,1.2-0.3,1.7-1.6l3.2-8.8l0.8-0.2c1,3,1.9,5.9,3,8.8c0.5,1.5,0.7,1.7,1.7,1.8v0.6H21z M19.7,40.2L19.7,40.2
		c-0.5,1.3-0.8,2.5-1.2,3.7h2.4L19.7,40.2z"/>
	<path d="M36.7,37.8c-0.9,0.1-1.2,0.3-1.2,0.9c-0.1,0.5-0.2,1.4-0.2,2.9v6.8h-0.8l-6.1-8.3h-0.1v3.7c0,1.4,0.1,2.3,0.1,2.8
		c0.1,0.6,0.4,0.9,1.5,1v0.5h-3.9v-0.5c0.9-0.1,1.2-0.3,1.3-1c0.1-0.5,0.2-1.4,0.2-2.8v-3.6c0-1.1,0-1.4-0.3-1.8
		c-0.3-0.4-0.6-0.6-1.3-0.7v-0.5h2.9l5.6,7.3h0.1v-3c0-1.5-0.1-2.3-0.2-2.9c-0.1-0.6-0.4-0.9-1.5-0.9v-0.5h3.8V37.8z"/>
	<path d="M43.3,40c-0.4-1.1-0.9-2.3-2.2-2.3c-0.8,0-1.5,0.7-1.5,1.7c0,1,0.6,1.5,1.9,2.3c1.6,0.9,2.8,1.8,2.8,3.5
		c0,1.9-1.5,3.3-3.9,3.3c-0.6,0-1.1-0.1-1.5-0.2c-0.4-0.1-0.8-0.3-1-0.4c-0.2-0.5-0.3-1.7-0.5-2.7l0.6-0.2c0.3,1,1.2,2.8,2.7,2.8
		c1,0,1.6-0.7,1.6-1.7c0-1-0.6-1.6-1.9-2.3c-1.5-0.9-2.8-1.8-2.8-3.5c0-1.8,1.3-3.2,3.7-3.2c0.9,0,1.7,0.3,2.2,0.4
		c0.1,0.6,0.2,1.4,0.3,2.4L43.3,40z"/>
	<path d="M55.5,42.7c0,3.6-2.2,5.8-5,5.8c-3,0-4.9-2.4-4.9-5.7c0-2.8,1.6-5.7,5.1-5.7C53.4,37.1,55.5,39.3,55.5,42.7z M48.1,42.4
		c0,2.9,0.9,5.4,2.7,5.4c1.3,0,2.2-1.6,2.2-4.7c0-3.3-0.9-5.4-2.5-5.4C49,37.7,48.1,39.7,48.1,42.4z M50.7,34.9
		c0.4,0.2,0.6,0.3,1,0.3c0.3,0,0.6-0.3,0.8-0.7l0.5,0.3c-0.4,1.3-1,1.6-1.5,1.6c-0.4,0-0.8-0.2-1.1-0.4c-0.4-0.2-0.6-0.3-0.9-0.3
		c-0.3,0-0.6,0.2-0.8,0.8l-0.5-0.3c0.4-1.2,1-1.6,1.5-1.6C49.9,34.6,50.2,34.7,50.7,34.9z"/>
	<path d="M64.8,45.6c-0.1,0.6-0.4,2.2-0.5,2.7h-7.9v-0.6c1.3-0.1,1.4-0.2,1.4-1.6v-6.7c0-1.4-0.2-1.5-1.2-1.6v-0.6h7.4
		c0,0.3,0.1,1.5,0.2,2.4l-0.6,0.1c-0.2-0.6-0.3-1.1-0.6-1.4c-0.2-0.3-0.7-0.5-1.7-0.5h-0.6c-0.5,0-0.6,0.1-0.6,0.6v3.6h1
		c1.3,0,1.5-0.1,1.8-1.3h0.6v3.3h-0.6C62.4,43,62.2,43,60.9,43h-1v3.1c0,0.8,0.1,1.2,0.4,1.3c0.3,0.2,0.7,0.2,1.3,0.2
		c0.9,0,1.4-0.1,1.8-0.5c0.3-0.4,0.6-0.9,0.9-1.6L64.8,45.6z"/>
	<path d="M71.4,40c-0.4-1.1-0.9-2.3-2.2-2.3c-0.8,0-1.5,0.7-1.5,1.7c0,1,0.6,1.5,1.9,2.3c1.6,0.9,2.8,1.8,2.8,3.5
		c0,1.9-1.5,3.3-3.9,3.3c-0.6,0-1.1-0.1-1.5-0.2c-0.4-0.1-0.8-0.3-1-0.4c-0.2-0.5-0.3-1.7-0.5-2.7l0.6-0.2c0.3,1,1.2,2.8,2.7,2.8
		c1,0,1.6-0.7,1.6-1.7c0-1-0.6-1.6-1.9-2.3c-1.5-0.9-2.8-1.8-2.8-3.5c0-1.8,1.3-3.2,3.7-3.2c0.9,0,1.7,0.3,2.2,0.4
		c0.1,0.6,0.2,1.4,0.3,2.4L71.4,40z"/>
	<path d="M84.9,48.2v-0.6c1.2-0.1,1.2-0.2,1.2-1.7l0-6.7h-0.1l-3.3,8.8h-0.5l-3-8.6h-0.1l-0.2,4.4c-0.1,1.4-0.1,2.2,0,2.7
		c0.1,0.8,0.4,1,1.5,1.1v0.6h-3.8v-0.6c0.9-0.1,1.1-0.3,1.2-0.9c0.1-0.5,0.2-1.5,0.3-3.1l0.2-3.6c0.1-1.9,0-2.1-1.3-2.2v-0.6h3.3
		l2.8,7.2l2.9-7.2h3.3v0.6c-1.3,0.1-1.3,0.2-1.3,1.6l0.2,6.6c0,1.5,0.1,1.6,1.3,1.7v0.6H84.9z"/>
	<path d="M100.4,42.7c0,3.6-2.2,5.8-5,5.8c-3,0-4.9-2.4-4.9-5.7c0-2.8,1.6-5.7,5.1-5.7C98.4,37.1,100.4,39.3,100.4,42.7z M93,42.4
		c0,2.9,0.9,5.4,2.7,5.4c1.3,0,2.2-1.6,2.2-4.7c0-3.3-0.9-5.4-2.5-5.4C93.9,37.7,93,39.7,93,42.4z"/>
	<path d="M111.2,48.4c-0.2,0-0.4,0-0.6,0c-2-0.1-2.5-0.5-3.2-1.6c-0.4-0.7-0.9-1.6-1.3-2.5c-0.2-0.5-0.5-0.8-1-0.8h-0.3V46
		c0,1.4,0.1,1.6,1.3,1.7v0.6h-4.7v-0.6c1.2-0.1,1.3-0.3,1.3-1.7v-6.6c0-1.4-0.1-1.5-1.2-1.6v-0.6h4.6c1.2,0,2,0.2,2.6,0.6
		c0.7,0.5,1.1,1.2,1.1,2.2c0,1.5-0.9,2.3-2,2.8c0.2,0.5,0.8,1.7,1.3,2.5c0.5,0.9,0.9,1.4,1.2,1.8c0.4,0.4,0.7,0.7,1,0.8L111.2,48.4z
		 M105.3,42.8c0.6,0,1.1-0.1,1.4-0.4c0.5-0.4,0.7-1.1,0.7-2c0-1.8-1-2.4-1.8-2.4c-0.4,0-0.5,0.1-0.6,0.2c-0.1,0.1-0.1,0.3-0.1,0.6
		v4.1H105.3z"/>
	<path d="M121.8,37.8c-0.9,0-1.2,0.3-1.3,0.9c-0.1,0.6-0.1,1.1-0.1,2.5v1.8c0,1.7-0.2,3.2-1.1,4.1c-0.7,0.8-1.8,1.2-2.9,1.2
		c-1,0-2-0.2-2.7-0.9c-0.9-0.8-1.2-1.9-1.2-3.9v-4.2c0-1.5-0.1-1.6-1.2-1.7v-0.6h4.6v0.6c-1.1,0.1-1.2,0.2-1.2,1.7v4.1
		c0,2.4,0.8,3.6,2.4,3.6c1.7,0,2.5-1.3,2.5-4.1v-2c0-1.3-0.1-2-0.1-2.5c-0.1-0.6-0.4-0.9-1.5-0.9v-0.6h3.9V37.8z"/>
	<path d="M130.3,48.2v-0.6c1.2-0.1,1.2-0.2,1.2-1.7l0-6.7h-0.1l-3.3,8.8h-0.5l-3-8.6h-0.1l-0.2,4.4c-0.1,1.4-0.1,2.2,0,2.7
		c0.1,0.8,0.4,1,1.5,1.1v0.6H122v-0.6c0.9-0.1,1.1-0.3,1.2-0.9c0.1-0.5,0.2-1.5,0.3-3.1l0.2-3.6c0.1-1.9,0-2.1-1.3-2.2v-0.6h3.3
		l2.8,7.2l2.9-7.2h3.3v0.6c-1.3,0.1-1.3,0.2-1.3,1.6l0.2,6.6c0,1.5,0.1,1.6,1.3,1.7v0.6H130.3z"/>
	<path d="M141.7,42.3c1.8,0.2,3,1.1,3,2.6c0,1.2-0.6,2-1.5,2.5c-0.9,0.5-2.1,0.7-3.4,0.7h-4v-0.6c1.2-0.1,1.3-0.3,1.3-1.7v-6.5
		c0-1.4-0.1-1.5-1.3-1.6v-0.6h4.6c1.3,0,2,0.2,2.7,0.6c0.6,0.4,0.9,1.1,0.9,1.9C144.2,41.3,142.9,42,141.7,42.3L141.7,42.3z
		 M139.7,42.1c1.5,0,2.1-0.6,2.1-2.1c0-1.5-0.9-2.1-1.7-2.1c-0.4,0-0.5,0.1-0.6,0.2c-0.1,0.1-0.2,0.4-0.2,0.8v3.2H139.7z M139.4,46
		c0,1.2,0.3,1.5,1.1,1.5c0.9,0,1.9-0.7,1.9-2.4c0-1.6-0.9-2.4-2.6-2.4h-0.3V46z"/>
	<path d="M145.9,48.2v-0.6c1.1-0.1,1.3-0.3,1.3-1.6v-6.6c0-1.4-0.1-1.5-1.3-1.6v-0.6h4.7v0.6c-1.1,0.1-1.3,0.2-1.3,1.6v6.6
		c0,1.3,0.1,1.5,1.3,1.6v0.6H145.9z"/>
</g>
</svg>
