<?xml version="1.0" encoding="utf-8"?>
<!-- Generator: Adobe Illustrator 18.0.0, SVG Export Plug-In . SVG Version: 6.00 Build 0)  -->
<!DOCTYPE svg PUBLIC "-//W3C//DTD SVG 1.1//EN" "http://www.w3.org/Graphics/SVG/1.1/DTD/svg11.dtd">
<svg version="1.1" id="Camada_1" xmlns="http://www.w3.org/2000/svg" xmlns:xlink="http://www.w3.org/1999/xlink" x="0px" y="0px"
	 viewBox="0 0 219 71.3" enable-background="new 0 0 219 71.3" xml:space="preserve">
<g>
	<path fill-rule="evenodd" clip-rule="evenodd" fill="#127E3F" d="M24.2,41.3L96.9,46c9.4-9.4,16.4-11.7,28.1-2.3
		c9.4-2.3,18.8-7,32.8-9.4l-14.1-9.4l-7,2.3l-4.7,4.7l-11.7-7c-28.1-4.7-4.7,11.7-93.8,14.1L24.2,41.3z"/>
	<path fill-rule="evenodd" clip-rule="evenodd" fill="#191415" d="M96.9,46c9.4-9.4,18.8-11.7,28.1,0c14.1-7,28.1-14.1,39.9-9.4
		c9.4,4.7,21.1,7,30.5,7v-2.3c-9.4,0-18.8-2.3-32.8-7c0,0-2.3,0-4.7,0c-9.4-9.4-18.8-14.1-25.8-4.7c-11.7-9.4-21.1-9.4-37.5,0
		c-14.1,7-42.2,7-68,9.4c-2.3,0,0,0-2.3,0c18.8,0,30.5,0,61-4.7c18.8-4.7,28.1-18.8,46.9,0c9.4-14.1,16.4-4.7,25.8,0
		c-14.1,0-28.1,7-32.8,9.4C115.7,34.3,106.3,34.3,96.9,46L96.9,46z"/>
</g>
<g>
	<path d="M35.7,5c0.2-0.5,0.4-0.9,0.7-1.3c0.3-0.4,0.7-0.7,1.2-0.9c0.5-0.2,1-0.3,1.7-0.3c0.5,0,0.9,0.1,1.3,0.2
		c0.4,0.1,0.7,0.3,1,0.5c0.3,0.2,0.5,0.4,0.6,0.7c0.1,0.2,0.2,0.5,0.2,0.7c0,0.5-0.3,0.8-0.8,0.8c-0.2,0-0.4,0-0.5-0.1
		S41,4.9,40.8,4.7c-0.2-0.3-0.4-0.5-0.6-0.6s-0.5-0.2-0.9-0.2c-0.6,0-1.1,0.2-1.5,0.7c-0.4,0.5-0.6,1.1-0.6,2c0,0.4,0,0.7,0.1,1
		s0.2,0.6,0.4,0.9c0.2,0.2,0.4,0.4,0.7,0.6c0.3,0.1,0.6,0.2,1,0.2c0.4,0,0.6-0.1,0.8-0.2c0.2-0.2,0.4-0.4,0.6-0.7
		C41,8.1,41.1,8,41.2,7.9c0.1-0.1,0.3-0.1,0.4-0.1c0.2,0,0.4,0.1,0.6,0.2c0.2,0.1,0.3,0.3,0.3,0.5c0,0.3-0.1,0.6-0.2,0.8
		c-0.2,0.3-0.4,0.5-0.7,0.7c-0.3,0.2-0.6,0.4-1,0.5c-0.4,0.1-0.8,0.2-1.2,0.2c-1.3,0-2.2-0.4-2.9-1.1c-0.7-0.7-1-1.7-1-3.1
		C35.5,6,35.5,5.5,35.7,5z"/>
	<path d="M43.6,4.8c0.2-0.5,0.4-0.9,0.8-1.3s0.8-0.6,1.3-0.8c0.5-0.2,1.1-0.3,1.7-0.3c0.6,0,1.2,0.1,1.7,0.3
		c0.5,0.2,0.9,0.5,1.3,0.8c0.3,0.4,0.6,0.8,0.8,1.3c0.2,0.5,0.3,1,0.3,1.6c0,0.6-0.1,1.1-0.2,1.6s-0.4,1-0.8,1.4
		c-0.3,0.4-0.8,0.7-1.3,0.9c-0.5,0.2-1.1,0.3-1.7,0.3c-0.7,0-1.3-0.1-1.8-0.3c-0.5-0.2-0.9-0.5-1.3-0.9s-0.6-0.8-0.7-1.3
		c-0.2-0.5-0.2-1.1-0.2-1.7C43.3,5.9,43.4,5.3,43.6,4.8z M45.2,7.6c0.1,0.3,0.2,0.6,0.4,0.9C45.7,8.7,46,8.9,46.3,9
		c0.3,0.1,0.6,0.2,1,0.2c0.4,0,0.7-0.1,1-0.2c0.3-0.1,0.5-0.3,0.7-0.6c0.2-0.3,0.3-0.6,0.4-0.9c0.1-0.3,0.1-0.7,0.1-1.1
		c0-0.8-0.2-1.4-0.6-1.9c-0.4-0.5-0.9-0.7-1.6-0.7S46,4.1,45.7,4.6c-0.4,0.5-0.6,1.1-0.6,1.9C45.1,6.9,45.1,7.2,45.2,7.6z"/>
	<path d="M52.6,3.5c0-0.4,0.1-0.6,0.3-0.8c0.2-0.2,0.5-0.2,0.9-0.2c0.4,0,0.7,0.2,0.9,0.5L57.8,8h0V3.3c0-0.6,0.3-0.9,0.9-0.9
		s0.9,0.3,0.9,0.9v6.2c0,0.4-0.1,0.6-0.3,0.8c-0.2,0.2-0.4,0.3-0.8,0.3c-0.3,0-0.5,0-0.6-0.1s-0.3-0.2-0.4-0.4l-3.1-5h0v4.6
		c0,0.6-0.3,0.9-0.9,0.9s-0.9-0.3-0.9-0.9V3.5z"/>
	<path d="M61.2,3.7c0-0.4,0.1-0.7,0.3-0.8c0.2-0.2,0.4-0.2,0.8-0.2h2.2c0.5,0,1,0.1,1.5,0.2s0.8,0.3,1.2,0.6
		c0.3,0.3,0.6,0.7,0.8,1.2c0.2,0.5,0.3,1.1,0.3,1.9c0,1.3-0.3,2.2-1,2.9c-0.7,0.7-1.6,1-2.8,1h-2.2c-0.3,0-0.6-0.1-0.8-0.2
		c-0.2-0.2-0.3-0.4-0.3-0.8V3.7z M63,9.1h1.5c0.3,0,0.6-0.1,0.9-0.2c0.2-0.1,0.4-0.3,0.6-0.6s0.3-0.5,0.3-0.8
		c0.1-0.3,0.1-0.6,0.1-0.9c0-0.8-0.2-1.4-0.5-1.9c-0.3-0.4-0.8-0.7-1.4-0.7H63V9.1z"/>
	<path d="M69.4,4.8c0.2-0.5,0.4-0.9,0.8-1.3s0.8-0.6,1.3-0.8c0.5-0.2,1.1-0.3,1.7-0.3c0.6,0,1.2,0.1,1.7,0.3
		c0.5,0.2,0.9,0.5,1.3,0.8c0.3,0.4,0.6,0.8,0.8,1.3c0.2,0.5,0.3,1,0.3,1.6c0,0.6-0.1,1.1-0.2,1.6s-0.4,1-0.8,1.4
		c-0.3,0.4-0.8,0.7-1.3,0.9c-0.5,0.2-1.1,0.3-1.7,0.3c-0.7,0-1.3-0.1-1.8-0.3c-0.5-0.2-0.9-0.5-1.3-0.9s-0.6-0.8-0.7-1.3
		c-0.2-0.5-0.2-1.1-0.2-1.7C69.2,5.9,69.3,5.3,69.4,4.8z M71.1,7.6c0.1,0.3,0.2,0.6,0.4,0.9c0.2,0.3,0.4,0.5,0.7,0.6
		c0.3,0.1,0.6,0.2,1,0.2c0.4,0,0.7-0.1,1-0.2c0.3-0.1,0.5-0.3,0.7-0.6c0.2-0.3,0.3-0.6,0.4-0.9c0.1-0.3,0.1-0.7,0.1-1.1
		c0-0.8-0.2-1.4-0.6-1.9c-0.4-0.5-0.9-0.7-1.6-0.7s-1.3,0.2-1.6,0.7C71.2,5,71,5.7,71,6.5C71,6.9,71,7.2,71.1,7.6z"/>
	<path d="M78.5,3.3c0-0.3,0.1-0.6,0.3-0.7c0.2-0.1,0.4-0.2,0.7-0.2H80c0.3,0,0.5,0.1,0.6,0.2C80.8,2.8,80.9,3,81,3.3l1.6,5.1h0
		l1.6-5.1c0.1-0.3,0.2-0.5,0.4-0.6c0.1-0.1,0.4-0.2,0.6-0.2h0.5c0.3,0,0.5,0.1,0.7,0.2c0.2,0.1,0.3,0.4,0.3,0.7v6.4
		c0,0.2-0.1,0.5-0.2,0.6c-0.1,0.2-0.3,0.3-0.6,0.3s-0.5-0.1-0.6-0.3C85.1,10.2,85,10,85,9.8V4.9h0l-1.7,5.3
		c-0.1,0.4-0.4,0.5-0.8,0.5c-0.4,0-0.7-0.2-0.8-0.5l-1.7-5.3h0v4.9c0,0.2-0.1,0.5-0.2,0.6c-0.1,0.2-0.3,0.3-0.6,0.3
		c-0.3,0-0.5-0.1-0.6-0.3c-0.1-0.2-0.2-0.4-0.2-0.6V3.3z"/>
	<path d="M89.4,0.5c0.1-0.1,0.3-0.2,0.4-0.3c0.1-0.1,0.2-0.1,0.3-0.1c0.2,0,0.3,0.1,0.4,0.2c0.1,0.1,0.1,0.3,0.1,0.4
		c0,0.2-0.1,0.4-0.4,0.6l-1,0.7c-0.1,0.1-0.2,0.1-0.3,0.2c-0.1,0-0.1,0-0.2,0c-0.1,0-0.3,0-0.4-0.1c-0.1-0.1-0.2-0.2-0.2-0.4
		c0-0.1,0-0.2,0.1-0.3c0-0.1,0.1-0.2,0.2-0.3L89.4,0.5z M88.3,3.4c0-0.3,0.1-0.5,0.2-0.7c0.2-0.2,0.4-0.2,0.7-0.2
		c0.3,0,0.5,0.1,0.7,0.2c0.2,0.2,0.2,0.4,0.2,0.7v6.4c0,0.3-0.1,0.5-0.2,0.7c-0.2,0.2-0.4,0.2-0.7,0.2c-0.3,0-0.5-0.1-0.7-0.2
		c-0.2-0.2-0.2-0.4-0.2-0.7V3.4z"/>
	<path d="M91.7,3.5c0-0.4,0.1-0.6,0.3-0.8c0.2-0.2,0.5-0.2,0.9-0.2c0.4,0,0.7,0.2,0.9,0.5L96.9,8h0V3.3c0-0.6,0.3-0.9,0.9-0.9
		s0.9,0.3,0.9,0.9v6.2c0,0.4-0.1,0.6-0.3,0.8c-0.2,0.2-0.4,0.3-0.8,0.3c-0.3,0-0.5,0-0.6-0.1s-0.3-0.2-0.4-0.4l-3.1-5h0v4.6
		c0,0.6-0.3,0.9-0.9,0.9s-0.9-0.3-0.9-0.9V3.5z"/>
	<path d="M100.3,3.4c0-0.3,0.1-0.5,0.2-0.7c0.2-0.2,0.4-0.2,0.7-0.2c0.3,0,0.5,0.1,0.7,0.2c0.2,0.2,0.2,0.4,0.2,0.7v6.4
		c0,0.3-0.1,0.5-0.2,0.7c-0.2,0.2-0.4,0.2-0.7,0.2c-0.3,0-0.5-0.1-0.7-0.2c-0.2-0.2-0.2-0.4-0.2-0.7V3.4z"/>
	<path d="M103.7,4.8c0.2-0.5,0.4-0.9,0.8-1.3s0.8-0.6,1.3-0.8c0.5-0.2,1.1-0.3,1.7-0.3c0.6,0,1.2,0.1,1.7,0.3
		c0.5,0.2,0.9,0.5,1.3,0.8c0.3,0.4,0.6,0.8,0.8,1.3c0.2,0.5,0.3,1,0.3,1.6c0,0.6-0.1,1.1-0.2,1.6s-0.4,1-0.8,1.4
		c-0.3,0.4-0.8,0.7-1.3,0.9c-0.5,0.2-1.1,0.3-1.7,0.3c-0.7,0-1.3-0.1-1.8-0.3c-0.5-0.2-0.9-0.5-1.3-0.9s-0.6-0.8-0.7-1.3
		c-0.2-0.5-0.2-1.1-0.2-1.7C103.4,5.9,103.5,5.3,103.7,4.8z M105.3,7.6c0.1,0.3,0.2,0.6,0.4,0.9c0.2,0.3,0.4,0.5,0.7,0.6
		c0.3,0.1,0.6,0.2,1,0.2c0.4,0,0.7-0.1,1-0.2c0.3-0.1,0.5-0.3,0.7-0.6c0.2-0.3,0.3-0.6,0.4-0.9c0.1-0.3,0.1-0.7,0.1-1.1
		c0-0.8-0.2-1.4-0.6-1.9c-0.4-0.5-0.9-0.7-1.6-0.7s-1.3,0.2-1.6,0.7c-0.4,0.5-0.6,1.1-0.6,1.9C105.2,6.9,105.3,7.2,105.3,7.6z"/>
	<path d="M116.2,3.7c0-0.4,0.1-0.7,0.3-0.8c0.2-0.2,0.4-0.2,0.8-0.2h4.2c0.3,0,0.5,0.1,0.7,0.2c0.2,0.1,0.2,0.3,0.2,0.6
		c0,0.3-0.1,0.5-0.2,0.6c-0.2,0.1-0.4,0.2-0.7,0.2H118v1.7h3.1c0.3,0,0.5,0,0.6,0.1s0.2,0.3,0.2,0.5c0,0.3-0.1,0.4-0.2,0.5
		c-0.2,0.1-0.4,0.2-0.6,0.2H118v1.9h3.6c0.3,0,0.5,0.1,0.7,0.2c0.2,0.1,0.2,0.3,0.2,0.6c0,0.3-0.1,0.5-0.2,0.6
		c-0.2,0.1-0.4,0.2-0.7,0.2h-4.3c-0.3,0-0.6-0.1-0.8-0.2c-0.2-0.2-0.3-0.4-0.3-0.8V3.7z"/>
	<path d="M123.7,5c0.2-0.5,0.4-0.9,0.7-1.3c0.3-0.4,0.7-0.7,1.2-0.9c0.5-0.2,1-0.3,1.7-0.3c0.5,0,0.9,0.1,1.3,0.2
		c0.4,0.1,0.7,0.3,1,0.5c0.3,0.2,0.5,0.4,0.6,0.7c0.1,0.2,0.2,0.5,0.2,0.7c0,0.5-0.3,0.8-0.8,0.8c-0.2,0-0.4,0-0.5-0.1
		s-0.3-0.2-0.4-0.4c-0.2-0.3-0.4-0.5-0.6-0.6s-0.5-0.2-0.9-0.2c-0.6,0-1.1,0.2-1.5,0.7c-0.4,0.5-0.6,1.1-0.6,2c0,0.4,0,0.7,0.1,1
		s0.2,0.6,0.4,0.9c0.2,0.2,0.4,0.4,0.7,0.6c0.3,0.1,0.6,0.2,1,0.2c0.4,0,0.6-0.1,0.8-0.2c0.2-0.2,0.4-0.4,0.6-0.7
		c0.2-0.2,0.3-0.4,0.4-0.5c0.1-0.1,0.3-0.1,0.4-0.1c0.2,0,0.4,0.1,0.6,0.2c0.2,0.1,0.3,0.3,0.3,0.5c0,0.3-0.1,0.6-0.2,0.8
		c-0.2,0.3-0.4,0.5-0.7,0.7c-0.3,0.2-0.6,0.4-1,0.5c-0.4,0.1-0.8,0.2-1.2,0.2c-1.3,0-2.2-0.4-2.9-1.1c-0.7-0.7-1-1.7-1-3.1
		C123.4,6,123.5,5.5,123.7,5z"/>
	<path d="M131.5,4.8c0.2-0.5,0.4-0.9,0.8-1.3s0.8-0.6,1.3-0.8c0.5-0.2,1.1-0.3,1.7-0.3c0.6,0,1.2,0.1,1.7,0.3
		c0.5,0.2,0.9,0.5,1.3,0.8c0.3,0.4,0.6,0.8,0.8,1.3c0.2,0.5,0.3,1,0.3,1.6c0,0.6-0.1,1.1-0.2,1.6s-0.4,1-0.8,1.4
		c-0.3,0.4-0.8,0.7-1.3,0.9c-0.5,0.2-1.1,0.3-1.7,0.3c-0.7,0-1.3-0.1-1.8-0.3c-0.5-0.2-0.9-0.5-1.3-0.9s-0.6-0.8-0.7-1.3
		c-0.2-0.5-0.2-1.1-0.2-1.7C131.3,5.9,131.3,5.3,131.5,4.8z M133.2,7.6c0.1,0.3,0.2,0.6,0.4,0.9c0.2,0.3,0.4,0.5,0.7,0.6
		c0.3,0.1,0.6,0.2,1,0.2c0.4,0,0.7-0.1,1-0.2c0.3-0.1,0.5-0.3,0.7-0.6c0.2-0.3,0.3-0.6,0.4-0.9c0.1-0.3,0.1-0.7,0.1-1.1
		c0-0.8-0.2-1.4-0.6-1.9c-0.4-0.5-0.9-0.7-1.6-0.7s-1.3,0.2-1.6,0.7c-0.4,0.5-0.6,1.1-0.6,1.9C133.1,6.9,133.1,7.2,133.2,7.6z"/>
	<path d="M140.6,3.4c0-0.3,0.1-0.5,0.2-0.7c0.2-0.2,0.4-0.2,0.7-0.2c0.3,0,0.5,0.1,0.7,0.2c0.2,0.2,0.2,0.4,0.2,0.7V9h3
		c0.3,0,0.5,0.1,0.7,0.2c0.2,0.1,0.3,0.3,0.3,0.6c0,0.2-0.1,0.4-0.3,0.6c-0.2,0.1-0.4,0.2-0.7,0.2h-3.8c-0.3,0-0.6-0.1-0.8-0.2
		c-0.2-0.2-0.3-0.4-0.3-0.8V3.4z"/>
	<path d="M147.2,4.8c0.2-0.5,0.4-0.9,0.8-1.3s0.8-0.6,1.3-0.8c0.5-0.2,1.1-0.3,1.7-0.3c0.6,0,1.2,0.1,1.7,0.3
		c0.5,0.2,0.9,0.5,1.3,0.8c0.3,0.4,0.6,0.8,0.8,1.3c0.2,0.5,0.3,1,0.3,1.6c0,0.6-0.1,1.1-0.2,1.6s-0.4,1-0.8,1.4
		c-0.3,0.4-0.8,0.7-1.3,0.9c-0.5,0.2-1.1,0.3-1.7,0.3c-0.7,0-1.3-0.1-1.8-0.3c-0.5-0.2-0.9-0.5-1.3-0.9s-0.6-0.8-0.7-1.3
		c-0.2-0.5-0.2-1.1-0.2-1.7C146.9,5.9,147,5.3,147.2,4.8z M148.9,7.6c0.1,0.3,0.2,0.6,0.4,0.9c0.2,0.3,0.4,0.5,0.7,0.6
		c0.3,0.1,0.6,0.2,1,0.2c0.4,0,0.7-0.1,1-0.2c0.3-0.1,0.5-0.3,0.7-0.6c0.2-0.3,0.3-0.6,0.4-0.9c0.1-0.3,0.1-0.7,0.1-1.1
		c0-0.8-0.2-1.4-0.6-1.9c-0.4-0.5-0.9-0.7-1.6-0.7s-1.3,0.2-1.6,0.7c-0.4,0.5-0.6,1.1-0.6,1.9C148.8,6.9,148.8,7.2,148.9,7.6z
		 M151.1,0.5c0.1-0.1,0.3-0.2,0.4-0.3c0.1-0.1,0.2-0.1,0.3-0.1c0.2,0,0.3,0.1,0.4,0.2c0.1,0.1,0.1,0.3,0.1,0.4
		c0,0.2-0.1,0.4-0.4,0.6l-1,0.7c-0.1,0.1-0.2,0.1-0.3,0.2c-0.1,0-0.1,0-0.2,0c-0.1,0-0.3,0-0.4-0.1C150.1,2,150,1.8,150,1.7
		c0-0.1,0-0.2,0.1-0.3c0-0.1,0.1-0.2,0.2-0.3L151.1,0.5z"/>
	<path d="M163.6,10.1c0,0.2-0.1,0.3-0.2,0.4s-0.3,0.2-0.4,0.2c-0.3,0-0.4-0.1-0.5-0.2c-0.1-0.2-0.2-0.4-0.2-0.8
		c-0.3,0.3-0.6,0.6-1,0.8c-0.4,0.2-0.8,0.3-1.4,0.3c-0.7,0-1.3-0.1-1.8-0.3c-0.5-0.2-0.9-0.5-1.2-0.9c-0.3-0.4-0.5-0.8-0.7-1.3
		c-0.1-0.5-0.2-1-0.2-1.6c0-0.7,0.1-1.2,0.3-1.8s0.5-1,0.8-1.3s0.8-0.6,1.3-0.8c0.5-0.2,1.1-0.3,1.7-0.3c0.5,0,0.9,0.1,1.3,0.2
		c0.4,0.1,0.7,0.3,1,0.5c0.3,0.2,0.5,0.4,0.6,0.6c0.1,0.2,0.2,0.4,0.2,0.6c0,0.3-0.1,0.5-0.2,0.6c-0.2,0.1-0.4,0.2-0.6,0.2
		c-0.2,0-0.3,0-0.4-0.1c-0.1-0.1-0.2-0.2-0.3-0.3c-0.1-0.1-0.2-0.2-0.2-0.3c-0.1-0.1-0.2-0.2-0.3-0.2C161,4,160.9,4,160.7,3.9
		s-0.4-0.1-0.6-0.1c-0.7,0-1.2,0.2-1.6,0.7c-0.4,0.5-0.6,1.2-0.6,2.1c0,0.8,0.2,1.4,0.6,1.9s0.9,0.7,1.7,0.7c0.5,0,0.9-0.1,1.3-0.5
		s0.6-0.7,0.6-1.2h-1.2c-0.2,0-0.4-0.1-0.6-0.2C160,7.4,160,7.3,160,7c0-0.5,0.2-0.7,0.7-0.7h2.2c0.3,0,0.4,0.1,0.6,0.2
		c0.1,0.1,0.2,0.3,0.2,0.6V10.1z"/>
	<path d="M165.2,3.4c0-0.3,0.1-0.5,0.2-0.7c0.2-0.2,0.4-0.2,0.7-0.2c0.3,0,0.5,0.1,0.7,0.2c0.2,0.2,0.2,0.4,0.2,0.7v6.4
		c0,0.3-0.1,0.5-0.2,0.7c-0.2,0.2-0.4,0.2-0.7,0.2c-0.3,0-0.5-0.1-0.7-0.2c-0.2-0.2-0.2-0.4-0.2-0.7V3.4z"/>
	<path d="M168.7,5c0.2-0.5,0.4-0.9,0.7-1.3c0.3-0.4,0.7-0.7,1.2-0.9c0.5-0.2,1-0.3,1.7-0.3c0.5,0,0.9,0.1,1.3,0.2
		c0.4,0.1,0.7,0.3,1,0.5c0.3,0.2,0.5,0.4,0.6,0.7c0.1,0.2,0.2,0.5,0.2,0.7c0,0.5-0.3,0.8-0.8,0.8c-0.2,0-0.4,0-0.5-0.1
		s-0.3-0.2-0.4-0.4c-0.2-0.3-0.4-0.5-0.6-0.6s-0.5-0.2-0.9-0.2c-0.6,0-1.1,0.2-1.5,0.7c-0.4,0.5-0.6,1.1-0.6,2c0,0.4,0,0.7,0.1,1
		s0.2,0.6,0.4,0.9c0.2,0.2,0.4,0.4,0.7,0.6c0.3,0.1,0.6,0.2,1,0.2c0.4,0,0.6-0.1,0.8-0.2c0.2-0.2,0.4-0.4,0.6-0.7
		c0.2-0.2,0.3-0.4,0.4-0.5c0.1-0.1,0.3-0.1,0.4-0.1c0.2,0,0.4,0.1,0.6,0.2c0.2,0.1,0.3,0.3,0.3,0.5c0,0.3-0.1,0.6-0.2,0.8
		c-0.2,0.3-0.4,0.5-0.7,0.7c-0.3,0.2-0.6,0.4-1,0.5c-0.4,0.1-0.8,0.2-1.2,0.2c-1.3,0-2.2-0.4-2.9-1.1c-0.7-0.7-1-1.7-1-3.1
		C168.5,6,168.5,5.5,168.7,5z"/>
	<path d="M176.6,4.8c0.2-0.5,0.4-0.9,0.8-1.3s0.8-0.6,1.3-0.8c0.5-0.2,1.1-0.3,1.7-0.3c0.6,0,1.2,0.1,1.7,0.3
		c0.5,0.2,0.9,0.5,1.3,0.8c0.3,0.4,0.6,0.8,0.8,1.3c0.2,0.5,0.3,1,0.3,1.6c0,0.6-0.1,1.1-0.2,1.6s-0.4,1-0.8,1.4
		c-0.3,0.4-0.8,0.7-1.3,0.9c-0.5,0.2-1.1,0.3-1.7,0.3c-0.7,0-1.3-0.1-1.8-0.3c-0.5-0.2-0.9-0.5-1.3-0.9s-0.6-0.8-0.7-1.3
		c-0.2-0.5-0.2-1.1-0.2-1.7C176.3,5.9,176.4,5.3,176.6,4.8z M178.2,7.6c0.1,0.3,0.2,0.6,0.4,0.9c0.2,0.3,0.4,0.5,0.7,0.6
		c0.3,0.1,0.6,0.2,1,0.2c0.4,0,0.7-0.1,1-0.2c0.3-0.1,0.5-0.3,0.7-0.6c0.2-0.3,0.3-0.6,0.4-0.9c0.1-0.3,0.1-0.7,0.1-1.1
		c0-0.8-0.2-1.4-0.6-1.9c-0.4-0.5-0.9-0.7-1.6-0.7s-1.3,0.2-1.6,0.7c-0.4,0.5-0.6,1.1-0.6,1.9C178.1,6.9,178.1,7.2,178.2,7.6z"/>
</g>
<g>
	<path d="M12.6,71.3v-0.8c1.7-0.2,1.8-0.3,1.8-2.5l0-9.8h-0.1L9.4,71.1H8.6L4.2,58.6H4.1L3.8,65c-0.1,2.1-0.1,3.3,0,4
		c0.1,1.1,0.5,1.4,2.1,1.5v0.8H0.4v-0.8c1.3-0.1,1.6-0.5,1.8-1.3c0.1-0.8,0.3-2.2,0.5-4.5L3,59.3c0.2-2.7,0.1-3-1.9-3.2v-0.8H6
		l4.1,10.6l4.2-10.6h4.8v0.8c-1.9,0.2-1.9,0.3-1.9,2.3l0.2,9.6c0,2.2,0.1,2.3,1.9,2.5v0.8H12.6z"/>
	<path d="M28.9,71.3v-0.8c1.3-0.2,1.5-0.5,1-1.7c-0.2-0.8-0.5-1.8-0.8-2.6h-4.3c-0.2,0.6-0.5,1.4-0.8,2.4c-0.4,1.3-0.3,1.6,1.4,1.8
		v0.8h-5.2v-0.8c1.4-0.1,1.8-0.4,2.5-2.3l4.7-12.9l1.2-0.3c1.5,4.3,2.8,8.6,4.3,12.9c0.8,2.2,1.1,2.5,2.5,2.6v0.8H28.9z M27.1,59.5
		L27.1,59.5c-0.7,1.8-1.2,3.6-1.8,5.4h3.5L27.1,59.5z"/>
	<path d="M51.9,56.1c-1.3,0.1-1.7,0.5-1.8,1.4c-0.1,0.8-0.3,2-0.3,4.2v10h-1.2l-8.9-12.1h-0.1v5.5c0,2.1,0.1,3.4,0.2,4.1
		c0.1,1,0.5,1.4,2.3,1.5v0.8h-5.7v-0.8c1.3-0.1,1.8-0.5,1.9-1.4c0.1-0.8,0.2-2.1,0.2-4.1v-5.2c0-1.6,0-2.1-0.4-2.6
		c-0.4-0.6-0.9-0.9-1.9-1v-0.8h4.3L48.6,66h0.1v-4.4c0-2.2-0.1-3.4-0.2-4.2c-0.1-0.9-0.6-1.3-2.2-1.4v-0.8h5.6V56.1z"/>
	<path d="M61.7,59.2c-0.5-1.5-1.3-3.3-3.2-3.3c-1.2,0-2.1,1-2.1,2.4c0,1.4,0.9,2.2,2.8,3.3c2.4,1.3,4.1,2.7,4.1,5.1
		c0,2.7-2.2,4.9-5.7,4.9c-0.8,0-1.6-0.1-2.3-0.3c-0.6-0.2-1.1-0.4-1.5-0.5c-0.2-0.7-0.5-2.5-0.7-4l0.9-0.3c0.5,1.5,1.7,4.1,4,4.1
		c1.4,0,2.3-1,2.3-2.5c0-1.4-0.9-2.4-2.7-3.4c-2.2-1.3-4-2.7-4-5.1c0-2.6,1.9-4.7,5.3-4.7c1.3,0,2.5,0.4,3.2,0.6
		c0.1,0.9,0.3,2,0.5,3.5L61.7,59.2z"/>
	<path d="M79.4,63.2c0,5.3-3.1,8.5-7.3,8.5c-4.3,0-7.2-3.5-7.2-8.3c0-4.1,2.4-8.4,7.4-8.4C76.4,55,79.4,58.2,79.4,63.2z M68.6,62.8
		c0,4.2,1.3,7.8,3.9,7.8c1.9,0,3.2-2.3,3.2-6.8c0-4.8-1.3-7.9-3.7-7.9C69.9,55.9,68.6,58.9,68.6,62.8z M72.4,51.9
		c0.5,0.2,1,0.4,1.4,0.4c0.5,0,0.8-0.4,1.1-1l0.8,0.4c-0.6,1.9-1.4,2.4-2.2,2.4c-0.5,0-1.1-0.3-1.6-0.5c-0.5-0.3-0.8-0.4-1.3-0.4
		c-0.4,0-0.8,0.4-1.2,1.1l-0.8-0.5c0.6-1.8,1.5-2.4,2.2-2.4C71.3,51.4,71.7,51.5,72.4,51.9z"/>
	<path d="M93.1,67.4c-0.2,1-0.6,3.2-0.8,3.9H80.7v-0.8c1.8-0.2,2.1-0.3,2.1-2.3v-9.7c0-2-0.2-2.1-1.8-2.3v-0.8h10.8
		c0,0.4,0.1,2.1,0.3,3.5L91.1,59c-0.3-0.9-0.5-1.6-0.9-2c-0.3-0.4-1-0.7-2.5-0.7h-0.9c-0.8,0-0.9,0.1-0.9,0.9v5.2h1.4
		c2,0,2.2-0.1,2.6-1.8h0.8v4.9h-0.8c-0.4-1.8-0.6-1.9-2.6-1.9h-1.4v4.5c0,1.2,0.1,1.7,0.5,1.9c0.4,0.2,1,0.3,2,0.3
		c1.3,0,2-0.2,2.6-0.8c0.4-0.5,0.8-1.2,1.2-2.3L93.1,67.4z"/>
	<path d="M102.7,59.2c-0.5-1.5-1.3-3.3-3.2-3.3c-1.2,0-2.1,1-2.1,2.4c0,1.4,0.9,2.2,2.8,3.3c2.4,1.3,4.1,2.7,4.1,5.1
		c0,2.7-2.2,4.9-5.7,4.9c-0.8,0-1.6-0.1-2.3-0.3c-0.6-0.2-1.1-0.4-1.5-0.5c-0.2-0.7-0.5-2.5-0.7-4l0.9-0.3c0.5,1.5,1.7,4.1,4,4.1
		c1.4,0,2.3-1,2.3-2.5c0-1.4-0.9-2.4-2.7-3.4c-2.2-1.3-4-2.7-4-5.1c0-2.6,1.9-4.7,5.3-4.7c1.3,0,2.5,0.4,3.2,0.6
		c0.1,0.9,0.3,2,0.5,3.5L102.7,59.2z"/>
	<path d="M122.6,71.3v-0.8c1.7-0.2,1.8-0.3,1.8-2.5l0-9.8h-0.1l-4.8,12.9h-0.8l-4.4-12.5H114l-0.2,6.4c-0.1,2.1-0.1,3.3,0,4
		c0.1,1.1,0.5,1.4,2.1,1.5v0.8h-5.5v-0.8c1.3-0.1,1.6-0.5,1.8-1.3c0.1-0.8,0.3-2.2,0.5-4.5l0.3-5.3c0.2-2.7,0.1-3-1.9-3.2v-0.8h4.8
		l4.1,10.6l4.2-10.6h4.8v0.8c-1.9,0.2-1.9,0.3-1.9,2.3l0.2,9.6c0,2.2,0.1,2.3,1.9,2.5v0.8H122.6z"/>
	<path d="M145.3,63.2c0,5.3-3.1,8.5-7.3,8.5c-4.3,0-7.2-3.5-7.2-8.3c0-4.1,2.4-8.4,7.4-8.4C142.2,55,145.3,58.2,145.3,63.2z
		 M134.4,62.8c0,4.2,1.3,7.8,3.9,7.8c1.9,0,3.2-2.3,3.2-6.8c0-4.8-1.3-7.9-3.7-7.9C135.8,55.9,134.4,58.9,134.4,62.8z"/>
	<path d="M161.1,71.6c-0.3,0-0.6,0-0.9,0c-2.9-0.1-3.7-0.8-4.7-2.4c-0.6-1-1.3-2.3-1.9-3.6c-0.3-0.8-0.7-1.1-1.4-1.2h-0.4v3.7
		c0,2,0.2,2.3,1.9,2.4v0.8h-6.9v-0.8c1.7-0.1,1.9-0.4,1.9-2.4v-9.6c0-2-0.2-2.1-1.8-2.3v-0.8h6.7c1.8,0,2.9,0.3,3.9,0.9
		c1,0.7,1.6,1.7,1.6,3.3c0,2.1-1.3,3.3-2.9,4c0.3,0.7,1.2,2.4,1.9,3.6c0.8,1.3,1.3,2.1,1.8,2.6c0.5,0.6,1,1,1.5,1.2L161.1,71.6z
		 M152.4,63.4c1,0,1.5-0.2,2.1-0.6c0.7-0.6,1.1-1.6,1.1-2.9c0-2.6-1.4-3.6-2.7-3.6c-0.5,0-0.8,0.1-1,0.2c-0.1,0.2-0.2,0.4-0.2,0.9v6
		H152.4z"/>
	<path d="M176.5,56.1c-1.3,0-1.8,0.5-1.9,1.3c-0.1,0.8-0.2,1.7-0.2,3.7v2.7c0,2.5-0.3,4.6-1.6,6.1c-1,1.1-2.6,1.8-4.2,1.8
		c-1.5,0-2.9-0.3-4-1.3c-1.3-1.1-1.8-2.7-1.8-5.6v-6.1c0-2.1-0.2-2.3-1.8-2.5v-0.8h6.8v0.8c-1.6,0.1-1.7,0.3-1.7,2.5v6
		c0,3.5,1.1,5.3,3.5,5.3c2.5,0,3.7-1.9,3.7-5.9v-2.9c0-2-0.1-2.9-0.2-3.6c-0.1-0.8-0.6-1.3-2.2-1.3v-0.8h5.7V56.1z"/>
	<path d="M189,71.3v-0.8c1.7-0.2,1.8-0.3,1.8-2.5l0-9.8h-0.1l-4.8,12.9H185l-4.4-12.5h-0.1l-0.2,6.4c-0.1,2.1-0.1,3.3,0,4
		c0.1,1.1,0.5,1.4,2.1,1.5v0.8h-5.5v-0.8c1.3-0.1,1.6-0.5,1.8-1.3c0.1-0.8,0.3-2.2,0.5-4.5l0.3-5.3c0.2-2.7,0.1-3-1.9-3.2v-0.8h4.8
		l4.1,10.6l4.2-10.6h4.8v0.8c-1.9,0.2-1.9,0.3-1.9,2.3l0.2,9.6c0,2.2,0.1,2.3,1.9,2.5v0.8H189z"/>
	<path d="M205.7,62.7c2.6,0.3,4.4,1.6,4.4,3.9c0,1.8-0.9,3-2.2,3.7c-1.2,0.8-3.1,1.1-5,1.1h-5.8v-0.8c1.8-0.1,2-0.4,2-2.4v-9.6
		c0-2-0.2-2.2-1.8-2.4v-0.8h6.7c1.8,0,3,0.3,3.9,0.9c0.8,0.6,1.4,1.5,1.4,2.7C209.3,61.2,207.4,62.2,205.7,62.7L205.7,62.7z
		 M202.8,62.4c2.2,0,3.1-0.9,3.1-3c0-2.2-1.2-3.1-2.5-3.1c-0.5,0-0.8,0.1-0.9,0.3c-0.2,0.1-0.3,0.5-0.3,1.1v4.7H202.8z M202.3,68.1
		c0,1.7,0.4,2.2,1.6,2.2c1.3,0,2.7-1,2.7-3.6c0-2.3-1.3-3.4-3.8-3.4h-0.5V68.1z"/>
	<path d="M211.9,71.3v-0.8c1.6-0.1,1.8-0.4,1.8-2.4v-9.6c0-2-0.2-2.2-1.8-2.4v-0.8h6.9v0.8c-1.7,0.1-1.8,0.3-1.8,2.4v9.6
		c0,2,0.2,2.2,1.8,2.4v0.8H211.9z"/>
</g>
</svg>
