<?xml version="1.0" encoding="utf-8"?>
<!-- Generator: Adobe Illustrator 18.0.0, SVG Export Plug-In . SVG Version: 6.00 Build 0)  -->
<!DOCTYPE svg PUBLIC "-//W3C//DTD SVG 1.1//EN" "http://www.w3.org/Graphics/SVG/1.1/DTD/svg11.dtd">
<svg version="1.1" id="Camada_1" xmlns="http://www.w3.org/2000/svg" xmlns:xlink="http://www.w3.org/1999/xlink" x="0px" y="0px"
	 viewBox="0 0 171.2 23.5" enable-background="new 0 0 171.2 23.5" xml:space="preserve">
<g>
	<path fill-rule="evenodd" clip-rule="evenodd" fill="#FFFFFF" d="M72.7,23.5c9.4-9.4,18.8-11.7,28.1,0c14.1-7,28.1-14.1,39.9-9.4
		c9.4,4.7,21.1,7,30.5,7v-2.3c-9.4,0-18.8-2.3-32.8-7c0,0-2.3,0-4.7,0c-9.4-9.4-18.8-14.1-25.8-4.7C96.2-2.3,86.8-2.3,70.4,7
		c-14.1,7-42.2,7-68,9.4c-2.3,0,0,0-2.3,0c18.8,0,30.5,0,61-4.7C79.8,7,89.1-7,107.9,11.7c9.4-14.1,16.4-4.7,25.8,0
		c-14.1,0-28.1,7-32.8,9.4C91.5,11.7,82.1,11.7,72.7,23.5L72.7,23.5z"/>
</g>
</svg>
